# xmcd CD database file
#
# Track frame offsets:
#	150
#	21444
#	45893
#	83467
#	101766
#	129740
#	160043
#	186667
#	219591
#	239015
#	260689
#	283413
#	318587
#
# Disc length: 4320 seconds
#
# Revision: 0
# Processed by: cddbd v1.5.2PL0 Copyright (c) Steve Scherf et al.
# Submitted via: CDex 1.70beta2
#
DISCID=c210de0d
DTITLE=Don Sebesky - i remember bill (a tribute to bill evans)
DYEAR=1997
DGENRE=Jazz
TTITLE0=waltz for debbie
TTITLE1=i remember bill
TTITLE2=so what
TTITLE3=quiet now
TTITLE4=all the things you are
TTITLE5=peace piece
TTITLE6=bill, not gil
TTITLE7=very early
TTITLE8=twelve tone tune two
TTITLE9=autumn leaves
TTITLE10=blue in green
TTITLE11=i'm getting sentimental over you
TTITLE12=epilogue
EXTD=YEAR: 1997
EXTT0=
EXTT1=
EXTT2=
EXTT3=
EXTT4=
EXTT5=
EXTT6=
EXTT7=
EXTT8=
EXTT9=
EXTT10=
EXTT11=
EXTT12=
PLAYORDER=
